<mxfile host="Electron" modified="2024-01-04T23:40:22.371Z" agent="Mozilla/5.0 (Windows NT 10.0; Win64; x64) AppleWebKit/537.36 (KHTML, like Gecko) draw.io/21.6.8 Chrome/114.0.5735.289 Electron/25.5.0 Safari/537.36" etag="K5HQaDqT7h7fzD5L7bxB" version="21.6.8" type="device">
  <diagram name="Page-1" id="gnbxfLK9RY40QBznqPLj">
    <mxGraphModel dx="1418" dy="916" grid="1" gridSize="10" guides="1" tooltips="1" connect="1" arrows="1" fold="1" page="1" pageScale="1" pageWidth="1169" pageHeight="827" math="0" shadow="0">
      <root>
        <mxCell id="0" />
        <mxCell id="1" parent="0" />
        <mxCell id="fyGwK_LKXreyt1gWs8nj-1" value="1" style="ellipse;whiteSpace=wrap;html=1;aspect=fixed;" parent="1" vertex="1">
          <mxGeometry x="70" y="360" width="70" height="70" as="geometry" />
        </mxCell>
        <mxCell id="fyGwK_LKXreyt1gWs8nj-2" value="3" style="ellipse;whiteSpace=wrap;html=1;aspect=fixed;" parent="1" vertex="1">
          <mxGeometry x="220" y="520" width="70" height="70" as="geometry" />
        </mxCell>
        <mxCell id="fyGwK_LKXreyt1gWs8nj-3" value="2" style="ellipse;whiteSpace=wrap;html=1;aspect=fixed;" parent="1" vertex="1">
          <mxGeometry x="220" y="150" width="70" height="70" as="geometry" />
        </mxCell>
        <mxCell id="fyGwK_LKXreyt1gWs8nj-5" value="4" style="rounded=0;whiteSpace=wrap;html=1;" parent="1" vertex="1">
          <mxGeometry x="570" y="30" width="120" height="60" as="geometry" />
        </mxCell>
        <mxCell id="fyGwK_LKXreyt1gWs8nj-6" value="6" style="rounded=0;whiteSpace=wrap;html=1;" parent="1" vertex="1">
          <mxGeometry x="570" y="310" width="120" height="60" as="geometry" />
        </mxCell>
        <mxCell id="fyGwK_LKXreyt1gWs8nj-7" value="" style="endArrow=none;html=1;rounded=0;exitX=0.762;exitY=0.068;exitDx=0;exitDy=0;exitPerimeter=0;" parent="1" source="fyGwK_LKXreyt1gWs8nj-1" target="fyGwK_LKXreyt1gWs8nj-3" edge="1">
          <mxGeometry width="50" height="50" relative="1" as="geometry">
            <mxPoint x="120" y="370" as="sourcePoint" />
            <mxPoint x="170" y="320" as="targetPoint" />
          </mxGeometry>
        </mxCell>
        <mxCell id="fyGwK_LKXreyt1gWs8nj-8" value="" style="endArrow=none;html=1;rounded=0;" parent="1" source="fyGwK_LKXreyt1gWs8nj-1" target="fyGwK_LKXreyt1gWs8nj-2" edge="1">
          <mxGeometry width="50" height="50" relative="1" as="geometry">
            <mxPoint x="150.00000000000003" y="461.49" as="sourcePoint" />
            <mxPoint x="261.01930936511116" y="309.9959139267585" as="targetPoint" />
          </mxGeometry>
        </mxCell>
        <mxCell id="fyGwK_LKXreyt1gWs8nj-10" value="burger" style="text;html=1;align=center;verticalAlign=middle;resizable=0;points=[];autosize=1;strokeColor=none;fillColor=none;fontSize=20;rotation=-55;" parent="1" vertex="1">
          <mxGeometry x="125" y="250" width="80" height="40" as="geometry" />
        </mxCell>
        <mxCell id="fyGwK_LKXreyt1gWs8nj-11" value="pizza" style="text;html=1;align=center;verticalAlign=middle;resizable=0;points=[];autosize=1;strokeColor=none;fillColor=none;fontSize=20;rotation=45;" parent="1" vertex="1">
          <mxGeometry x="130" y="470" width="70" height="40" as="geometry" />
        </mxCell>
        <mxCell id="fyGwK_LKXreyt1gWs8nj-12" value="" style="endArrow=none;html=1;rounded=0;fontSize=20;entryX=0;entryY=0.75;entryDx=0;entryDy=0;exitX=1;exitY=0.5;exitDx=0;exitDy=0;" parent="1" source="fyGwK_LKXreyt1gWs8nj-3" target="fyGwK_LKXreyt1gWs8nj-5" edge="1">
          <mxGeometry width="50" height="50" relative="1" as="geometry">
            <mxPoint x="280" y="160" as="sourcePoint" />
            <mxPoint x="430" y="80" as="targetPoint" />
          </mxGeometry>
        </mxCell>
        <mxCell id="fyGwK_LKXreyt1gWs8nj-13" value="&amp;gt;=5 burger order" style="text;html=1;align=center;verticalAlign=middle;resizable=0;points=[];autosize=1;strokeColor=none;fillColor=none;fontSize=20;rotation=-20;" parent="1" vertex="1">
          <mxGeometry x="325" y="90" width="170" height="40" as="geometry" />
        </mxCell>
        <mxCell id="fyGwK_LKXreyt1gWs8nj-14" value="" style="endArrow=none;html=1;rounded=0;fontSize=20;exitX=1;exitY=1;exitDx=0;exitDy=0;" parent="1" source="fyGwK_LKXreyt1gWs8nj-3" target="fyGwK_LKXreyt1gWs8nj-6" edge="1">
          <mxGeometry width="50" height="50" relative="1" as="geometry">
            <mxPoint x="350" y="270" as="sourcePoint" />
            <mxPoint x="400" y="220" as="targetPoint" />
          </mxGeometry>
        </mxCell>
        <mxCell id="fyGwK_LKXreyt1gWs8nj-15" value="&amp;lt;3 burger order" style="text;html=1;align=center;verticalAlign=middle;resizable=0;points=[];autosize=1;strokeColor=none;fillColor=none;fontSize=20;rotation=20;" parent="1" vertex="1">
          <mxGeometry x="335" y="270" width="160" height="40" as="geometry" />
        </mxCell>
        <mxCell id="fyGwK_LKXreyt1gWs8nj-16" value="5" style="rounded=0;whiteSpace=wrap;html=1;" parent="1" vertex="1">
          <mxGeometry x="570" y="170" width="120" height="60" as="geometry" />
        </mxCell>
        <mxCell id="fyGwK_LKXreyt1gWs8nj-20" value="" style="endArrow=none;html=1;rounded=0;fontSize=20;entryX=0;entryY=0.5;entryDx=0;entryDy=0;exitX=0.944;exitY=0.719;exitDx=0;exitDy=0;exitPerimeter=0;" parent="1" source="fyGwK_LKXreyt1gWs8nj-3" target="fyGwK_LKXreyt1gWs8nj-16" edge="1">
          <mxGeometry width="50" height="50" relative="1" as="geometry">
            <mxPoint x="290" y="200" as="sourcePoint" />
            <mxPoint x="430" y="150" as="targetPoint" />
          </mxGeometry>
        </mxCell>
        <mxCell id="fyGwK_LKXreyt1gWs8nj-21" value="3-4 burger order" style="text;html=1;align=center;verticalAlign=middle;resizable=0;points=[];autosize=1;strokeColor=none;fillColor=none;fontSize=20;rotation=0;" parent="1" vertex="1">
          <mxGeometry x="350" y="165" width="170" height="40" as="geometry" />
        </mxCell>
        <mxCell id="fyGwK_LKXreyt1gWs8nj-22" value="" style="endArrow=none;html=1;rounded=0;fontSize=20;exitX=1;exitY=0.5;exitDx=0;exitDy=0;" parent="1" source="fyGwK_LKXreyt1gWs8nj-5" edge="1">
          <mxGeometry width="50" height="50" relative="1" as="geometry">
            <mxPoint x="820" y="90" as="sourcePoint" />
            <mxPoint x="990" y="60" as="targetPoint" />
          </mxGeometry>
        </mxCell>
        <mxCell id="fyGwK_LKXreyt1gWs8nj-23" value="" style="endArrow=none;html=1;rounded=0;fontSize=20;exitX=1;exitY=0.5;exitDx=0;exitDy=0;" parent="1" edge="1">
          <mxGeometry width="50" height="50" relative="1" as="geometry">
            <mxPoint x="690" y="199.5" as="sourcePoint" />
            <mxPoint x="990" y="199.5" as="targetPoint" />
          </mxGeometry>
        </mxCell>
        <mxCell id="fyGwK_LKXreyt1gWs8nj-24" value="" style="endArrow=none;html=1;rounded=0;fontSize=20;exitX=1;exitY=0.5;exitDx=0;exitDy=0;" parent="1" edge="1">
          <mxGeometry width="50" height="50" relative="1" as="geometry">
            <mxPoint x="690" y="339.65999999999997" as="sourcePoint" />
            <mxPoint x="989.9999999999998" y="339.65999999999997" as="targetPoint" />
          </mxGeometry>
        </mxCell>
        <mxCell id="fyGwK_LKXreyt1gWs8nj-25" value="5% discount" style="text;html=1;align=center;verticalAlign=middle;resizable=0;points=[];autosize=1;strokeColor=none;fillColor=none;fontSize=20;rotation=0;" parent="1" vertex="1">
          <mxGeometry x="765" y="165" width="130" height="40" as="geometry" />
        </mxCell>
        <mxCell id="fyGwK_LKXreyt1gWs8nj-26" value="7% discount" style="text;html=1;align=center;verticalAlign=middle;resizable=0;points=[];autosize=1;strokeColor=none;fillColor=none;fontSize=20;rotation=0;" parent="1" vertex="1">
          <mxGeometry x="765" y="20" width="130" height="40" as="geometry" />
        </mxCell>
        <mxCell id="fyGwK_LKXreyt1gWs8nj-27" value="No discount" style="text;html=1;align=center;verticalAlign=middle;resizable=0;points=[];autosize=1;strokeColor=none;fillColor=none;fontSize=20;rotation=0;" parent="1" vertex="1">
          <mxGeometry x="770" y="300" width="130" height="40" as="geometry" />
        </mxCell>
        <mxCell id="fyGwK_LKXreyt1gWs8nj-28" value="" style="endArrow=none;html=1;rounded=0;fontSize=20;exitX=1;exitY=0.5;exitDx=0;exitDy=0;" parent="1" source="fyGwK_LKXreyt1gWs8nj-2" edge="1">
          <mxGeometry width="50" height="50" relative="1" as="geometry">
            <mxPoint x="290" y="540" as="sourcePoint" />
            <mxPoint x="560" y="555" as="targetPoint" />
          </mxGeometry>
        </mxCell>
        <mxCell id="fyGwK_LKXreyt1gWs8nj-36" value="No discount" style="text;html=1;align=center;verticalAlign=middle;resizable=0;points=[];autosize=1;strokeColor=none;fillColor=none;fontSize=20;rotation=0;" parent="1" vertex="1">
          <mxGeometry x="345" y="510" width="130" height="40" as="geometry" />
        </mxCell>
        <mxCell id="fyGwK_LKXreyt1gWs8nj-38" value="Fig: Decision Tree to represent the logic of payload system" style="text;html=1;align=center;verticalAlign=middle;resizable=0;points=[];autosize=1;strokeColor=none;fillColor=none;fontSize=20;" parent="1" vertex="1">
          <mxGeometry x="310" y="730" width="540" height="40" as="geometry" />
        </mxCell>
      </root>
    </mxGraphModel>
  </diagram>
</mxfile>
